<mxfile host="65bd71144e">
    <diagram id="BsBV6leVBUCAfMzn52um" name="Page-1">
        <mxGraphModel dx="562" dy="429" grid="1" gridSize="10" guides="1" tooltips="1" connect="1" arrows="1" fold="1" page="1" pageScale="1" pageWidth="827" pageHeight="1169" math="0" shadow="0">
            <root>
                <mxCell id="0"/>
                <mxCell id="1" parent="0"/>
                <mxCell id="9" style="edgeStyle=none;html=1;entryX=0.5;entryY=0;entryDx=0;entryDy=0;" parent="1" source="2" edge="1">
                    <mxGeometry relative="1" as="geometry">
                        <mxPoint x="390" y="140" as="targetPoint"/>
                    </mxGeometry>
                </mxCell>
                <mxCell id="2" value="start" style="strokeWidth=2;html=1;shape=mxgraph.flowchart.terminator;whiteSpace=wrap;" parent="1" vertex="1">
                    <mxGeometry x="340" y="40" width="100" height="60" as="geometry"/>
                </mxCell>
                <mxCell id="59" style="edgeStyle=none;html=1;entryX=0.5;entryY=0;entryDx=0;entryDy=0;entryPerimeter=0;" parent="1" edge="1">
                    <mxGeometry relative="1" as="geometry">
                        <mxPoint x="390" y="200" as="sourcePoint"/>
                        <mxPoint x="390" y="250" as="targetPoint"/>
                    </mxGeometry>
                </mxCell>
                <mxCell id="32" style="edgeStyle=orthogonalEdgeStyle;html=1;entryX=0;entryY=0.5;entryDx=0;entryDy=0;entryPerimeter=0;strokeColor=none;rounded=0;" parent="1" edge="1">
                    <mxGeometry relative="1" as="geometry">
                        <mxPoint x="515" y="480" as="targetPoint"/>
                        <mxPoint x="443.9000000000001" y="535" as="sourcePoint"/>
                    </mxGeometry>
                </mxCell>
                <mxCell id="112" value="random_integer = random.randint(0,9)" style="rounded=1;whiteSpace=wrap;html=1;" vertex="1" parent="1">
                    <mxGeometry x="332.5" y="140" width="120" height="60" as="geometry"/>
                </mxCell>
                <mxCell id="115" style="edgeStyle=none;html=1;entryX=0.5;entryY=0;entryDx=0;entryDy=0;entryPerimeter=0;" edge="1" parent="1" source="113" target="114">
                    <mxGeometry relative="1" as="geometry"/>
                </mxCell>
                <mxCell id="113" value="get &lt;br&gt;user_integer&amp;nbsp;" style="shape=parallelogram;html=1;strokeWidth=2;perimeter=parallelogramPerimeter;whiteSpace=wrap;rounded=1;arcSize=12;size=0.23;" vertex="1" parent="1">
                    <mxGeometry x="340" y="250" width="100" height="60" as="geometry"/>
                </mxCell>
                <mxCell id="118" style="edgeStyle=none;html=1;entryX=0.5;entryY=0;entryDx=0;entryDy=0;" edge="1" parent="1" source="114" target="117">
                    <mxGeometry relative="1" as="geometry"/>
                </mxCell>
                <mxCell id="132" style="edgeStyle=orthogonalEdgeStyle;rounded=0;html=1;" edge="1" parent="1" source="114" target="131">
                    <mxGeometry relative="1" as="geometry"/>
                </mxCell>
                <mxCell id="114" value="try" style="strokeWidth=2;html=1;shape=mxgraph.flowchart.decision;whiteSpace=wrap;" vertex="1" parent="1">
                    <mxGeometry x="340" y="350" width="100" height="100" as="geometry"/>
                </mxCell>
                <mxCell id="120" style="edgeStyle=none;html=1;" edge="1" parent="1" source="117" target="119">
                    <mxGeometry relative="1" as="geometry"/>
                </mxCell>
                <mxCell id="117" value="convert string to int" style="rounded=1;whiteSpace=wrap;html=1;" vertex="1" parent="1">
                    <mxGeometry x="330" y="490" width="120" height="60" as="geometry"/>
                </mxCell>
                <mxCell id="122" style="edgeStyle=none;html=1;" edge="1" parent="1" source="119" target="121">
                    <mxGeometry relative="1" as="geometry"/>
                </mxCell>
                <mxCell id="125" style="edgeStyle=orthogonalEdgeStyle;html=1;rounded=0;" edge="1" parent="1" source="119" target="126">
                    <mxGeometry relative="1" as="geometry">
                        <mxPoint x="510" y="627.5" as="targetPoint"/>
                    </mxGeometry>
                </mxCell>
                <mxCell id="119" value="if user_int == random_number" style="rhombus;whiteSpace=wrap;html=1;" vertex="1" parent="1">
                    <mxGeometry x="340" y="585" width="100" height="85" as="geometry"/>
                </mxCell>
                <mxCell id="123" style="edgeStyle=none;html=1;" edge="1" parent="1" source="121" target="124">
                    <mxGeometry relative="1" as="geometry">
                        <mxPoint x="390" y="820" as="targetPoint"/>
                    </mxGeometry>
                </mxCell>
                <mxCell id="121" value="print &quot;You guessed correctly!" style="shape=parallelogram;html=1;strokeWidth=2;perimeter=parallelogramPerimeter;whiteSpace=wrap;rounded=1;arcSize=12;size=0.23;" vertex="1" parent="1">
                    <mxGeometry x="340" y="710" width="100" height="60" as="geometry"/>
                </mxCell>
                <mxCell id="136" style="edgeStyle=orthogonalEdgeStyle;rounded=0;html=1;" edge="1" parent="1" source="124" target="135">
                    <mxGeometry relative="1" as="geometry"/>
                </mxCell>
                <mxCell id="124" value="print &quot;Thank &lt;br&gt;you for playing!" style="shape=parallelogram;html=1;strokeWidth=2;perimeter=parallelogramPerimeter;whiteSpace=wrap;rounded=1;arcSize=12;size=0.23;" vertex="1" parent="1">
                    <mxGeometry x="335" y="830" width="110" height="60" as="geometry"/>
                </mxCell>
                <mxCell id="127" style="edgeStyle=orthogonalEdgeStyle;rounded=0;html=1;exitX=0.5;exitY=1;exitDx=0;exitDy=0;" edge="1" parent="1" source="126">
                    <mxGeometry relative="1" as="geometry">
                        <mxPoint x="390" y="800" as="targetPoint"/>
                        <Array as="points">
                            <mxPoint x="510" y="800"/>
                        </Array>
                    </mxGeometry>
                </mxCell>
                <mxCell id="126" value="print &quot;You guessed incorrectly, try again!" style="shape=parallelogram;html=1;strokeWidth=2;perimeter=parallelogramPerimeter;whiteSpace=wrap;rounded=1;arcSize=12;size=0.23;" vertex="1" parent="1">
                    <mxGeometry x="460" y="710" width="100" height="60" as="geometry"/>
                </mxCell>
                <mxCell id="128" value="yes" style="text;html=1;align=center;verticalAlign=middle;resizable=0;points=[];autosize=1;strokeColor=none;fillColor=none;" vertex="1" parent="1">
                    <mxGeometry x="360" y="670" width="30" height="20" as="geometry"/>
                </mxCell>
                <mxCell id="129" value="no" style="text;html=1;align=center;verticalAlign=middle;resizable=0;points=[];autosize=1;strokeColor=none;fillColor=none;" vertex="1" parent="1">
                    <mxGeometry x="440" y="610" width="30" height="20" as="geometry"/>
                </mxCell>
                <mxCell id="130" value="yes" style="text;html=1;align=center;verticalAlign=middle;resizable=0;points=[];autosize=1;strokeColor=none;fillColor=none;" vertex="1" parent="1">
                    <mxGeometry x="355" y="450" width="30" height="20" as="geometry"/>
                </mxCell>
                <mxCell id="134" style="edgeStyle=orthogonalEdgeStyle;rounded=0;html=1;" edge="1" parent="1" source="131">
                    <mxGeometry relative="1" as="geometry">
                        <mxPoint x="510" y="800" as="targetPoint"/>
                        <Array as="points">
                            <mxPoint x="630" y="800"/>
                        </Array>
                    </mxGeometry>
                </mxCell>
                <mxCell id="131" value="print &quot;Invalid integer.&quot;" style="shape=parallelogram;html=1;strokeWidth=2;perimeter=parallelogramPerimeter;whiteSpace=wrap;rounded=1;arcSize=12;size=0.23;" vertex="1" parent="1">
                    <mxGeometry x="580" y="597.5" width="100" height="60" as="geometry"/>
                </mxCell>
                <mxCell id="133" value="exception" style="text;html=1;align=center;verticalAlign=middle;resizable=0;points=[];autosize=1;strokeColor=none;fillColor=none;" vertex="1" parent="1">
                    <mxGeometry x="440" y="380" width="70" height="20" as="geometry"/>
                </mxCell>
                <mxCell id="135" value="stop" style="strokeWidth=2;html=1;shape=mxgraph.flowchart.terminator;whiteSpace=wrap;" vertex="1" parent="1">
                    <mxGeometry x="340" y="930" width="100" height="60" as="geometry"/>
                </mxCell>
            </root>
        </mxGraphModel>
    </diagram>
</mxfile>